<?xml version="1.0" encoding="UTF-8"?>
<!DOCTYPE svg PUBLIC "-//W3C//DTD SVG 1.1//EN" "http://www.w3.org/Graphics/SVG/1.1/DTD/svg11.dtd">
<svg xmlns="http://www.w3.org/2000/svg" version="1.1" width="4167px" height="4167px" style="shape-rendering:geometricPrecision; text-rendering:geometricPrecision; image-rendering:optimizeQuality; fill-rule:evenodd; clip-rule:evenodd" xmlns:xlink="http://www.w3.org/1999/xlink">
<g><path style="opacity:0.998" fill="#e8553d" d="M 1981.5,644.5 C 1981.5,816.5 1981.5,988.5 1981.5,1160.5C 1957.13,1161.14 1932.79,1162.48 1908.5,1164.5C 1908.5,992.167 1908.5,819.833 1908.5,647.5C 1932.65,645.837 1956.98,644.837 1981.5,644.5 Z"/></g>
<g><path style="opacity:0.998" fill="#e95a3b" d="M 1981.5,644.5 C 2026.58,644.804 2071.58,646.804 2116.5,650.5C 2116.5,824.167 2116.5,997.833 2116.5,1171.5C 2071.8,1164.32 2026.8,1160.65 1981.5,1160.5C 1981.5,988.5 1981.5,816.5 1981.5,644.5 Z"/></g>
<g><path style="opacity:0.998" fill="#e7523f" d="M 1898.5,647.5 C 1898.5,820.167 1898.5,992.833 1898.5,1165.5C 1881.19,1168.07 1863.86,1170.74 1846.5,1173.5C 1846.5,999.833 1846.5,826.167 1846.5,652.5C 1863.74,650.285 1881.07,648.619 1898.5,647.5 Z"/></g>
<g><path style="opacity:0.999" fill="#e7543e" d="M 1898.5,647.5 C 1901.83,647.5 1905.17,647.5 1908.5,647.5C 1908.5,819.833 1908.5,992.167 1908.5,1164.5C 1905.27,1165.41 1901.94,1165.75 1898.5,1165.5C 1898.5,992.833 1898.5,820.167 1898.5,647.5 Z"/></g>
<g><path style="opacity:0.998" fill="#ea5e39" d="M 2116.5,650.5 C 2130.44,652.308 2144.44,653.975 2158.5,655.5C 2158.5,830.167 2158.5,1004.83 2158.5,1179.5C 2144.57,1176.45 2130.57,1173.78 2116.5,1171.5C 2116.5,997.833 2116.5,824.167 2116.5,650.5 Z"/></g>
<g><path style="opacity:0.998" fill="#e64d41" d="M 1846.5,652.5 C 1846.5,826.167 1846.5,999.833 1846.5,1173.5C 1796.29,1183.3 1747.29,1197.3 1699.5,1215.5C 1696.8,1199.36 1693.47,1183.36 1689.5,1167.5C 1689.5,1004.5 1689.5,841.5 1689.5,678.5C 1741.21,666.27 1793.54,657.604 1846.5,652.5 Z"/></g>
<g><path style="opacity:0.998" fill="#ea6137" d="M 2158.5,655.5 C 2186.25,659.291 2213.92,663.625 2241.5,668.5C 2241.5,846.5 2241.5,1024.5 2241.5,1202.5C 2214.24,1193.44 2186.58,1185.77 2158.5,1179.5C 2158.5,1004.83 2158.5,830.167 2158.5,655.5 Z"/></g>
<g><path style="opacity:0.998" fill="#ec6634" d="M 2241.5,668.5 C 2294.21,679.012 2346.21,692.345 2397.5,708.5C 2397.5,896.833 2397.5,1085.17 2397.5,1273.5C 2348.01,1244.42 2296.01,1220.76 2241.5,1202.5C 2241.5,1024.5 2241.5,846.5 2241.5,668.5 Z"/></g>
<g><path style="opacity:0.996" fill="#e54944" d="M 1689.5,678.5 C 1689.5,841.5 1689.5,1004.5 1689.5,1167.5C 1681.16,1139.47 1670.82,1112.14 1658.5,1085.5C 1658.5,952.167 1658.5,818.833 1658.5,685.5C 1668.8,683.039 1679.14,680.706 1689.5,678.5 Z"/></g>
<g><path style="opacity:0.996" fill="#e44645" d="M 1658.5,685.5 C 1658.5,818.833 1658.5,952.167 1658.5,1085.5C 1634.09,1038.34 1603.09,996.002 1565.5,958.5C 1565.5,876.833 1565.5,795.167 1565.5,713.5C 1596.18,703.081 1627.18,693.747 1658.5,685.5 Z"/></g>
<g><path style="opacity:0.998" fill="#ed6b32" d="M 2397.5,708.5 C 2414.91,714.303 2432.24,720.303 2449.5,726.5C 2449.5,919.833 2449.5,1113.17 2449.5,1306.5C 2432.5,1295 2415.17,1284 2397.5,1273.5C 2397.5,1085.17 2397.5,896.833 2397.5,708.5 Z"/></g>
<g><path style="opacity:0.993" fill="#e34247" d="M 1565.5,713.5 C 1565.5,795.167 1565.5,876.833 1565.5,958.5C 1525.87,919.558 1480.54,888.892 1429.5,866.5C 1429.5,833.833 1429.5,801.167 1429.5,768.5C 1473.63,747.441 1518.97,729.108 1565.5,713.5 Z"/></g>
<g><path style="opacity:0.998" fill="#ed6d31" d="M 2449.5,726.5 C 2452.91,727.638 2456.25,728.971 2459.5,730.5C 2459.5,924.833 2459.5,1119.17 2459.5,1313.5C 2455.78,1311.65 2452.45,1309.31 2449.5,1306.5C 2449.5,1113.17 2449.5,919.833 2449.5,726.5 Z"/></g>
<g><path style="opacity:0.998" fill="#ee6e30" d="M 2459.5,730.5 C 2484.18,739.674 2508.51,749.674 2532.5,760.5C 2532.5,964.5 2532.5,1168.5 2532.5,1372.5C 2509.01,1351.67 2484.68,1332 2459.5,1313.5C 2459.5,1119.17 2459.5,924.833 2459.5,730.5 Z"/></g>
<g><path style="opacity:0.998" fill="#ef732e" d="M 2532.5,760.5 C 2579.17,781 2624.17,804.334 2667.5,830.5C 2667.5,1062.83 2667.5,1295.17 2667.5,1527.5C 2628.75,1470.73 2583.75,1419.06 2532.5,1372.5C 2532.5,1168.5 2532.5,964.5 2532.5,760.5 Z"/></g>
<g><path style="opacity:0.988" fill="#e23d4a" d="M 1429.5,768.5 C 1429.5,801.167 1429.5,833.833 1429.5,866.5C 1419.28,861.891 1408.95,857.557 1398.5,853.5C 1398.5,830.167 1398.5,806.833 1398.5,783.5C 1408.4,777.719 1418.73,772.719 1429.5,768.5 Z"/></g>
<g><path style="opacity:0.971" fill="#e13b4b" d="M 1398.5,783.5 C 1398.5,806.833 1398.5,830.167 1398.5,853.5C 1370.03,843.965 1341.03,836.465 1311.5,831C 1339.59,813.618 1368.59,797.784 1398.5,783.5 Z"/></g>
<g><path style="opacity:0.998" fill="#f0772c" d="M 2667.5,830.5 C 2681.84,838.669 2695.84,847.335 2709.5,856.5C 2709.5,1103.5 2709.5,1350.5 2709.5,1597.5C 2696.01,1573.84 2682.01,1550.51 2667.5,1527.5C 2667.5,1295.17 2667.5,1062.83 2667.5,830.5 Z"/></g>
<g><path style="opacity:0.996" fill="#f07a2a" d="M 2709.5,856.5 C 2741.88,877.023 2773.22,899.023 2803.5,922.5C 2803.5,1525.83 2803.5,2129.17 2803.5,2732.5C 2771.93,2718.54 2740.59,2704.2 2709.5,2689.5C 2709.5,2574.5 2709.5,2459.5 2709.5,2344.5C 2795.73,2176.79 2821.56,2000.12 2787,1814.5C 2771.31,1738.47 2745.48,1666.14 2709.5,1597.5C 2709.5,1350.5 2709.5,1103.5 2709.5,856.5 Z"/></g>
<g><path style="opacity:0.999" fill="#f27f27" d="M 2803.5,922.5 C 2855.14,962.127 2903.48,1005.79 2948.5,1053.5C 2948.5,1634.83 2948.5,2216.17 2948.5,2797.5C 2900.04,2776.11 2851.71,2754.44 2803.5,2732.5C 2803.5,2129.17 2803.5,1525.83 2803.5,922.5 Z"/></g>
<g><path style="opacity:0.996" fill="#00e7ff" d="M 1211.5,1016.5 C 1305.98,1013 1382.48,1048 1441,1121.5C 1495.25,1198.92 1507.25,1282.59 1477,1372.5C 1442.05,1458.73 1379.55,1513.56 1289.5,1537C 1203.97,1554.64 1127.3,1536.3 1059.5,1482C 982.512,1412.37 953.345,1326.21 972,1223.5C 996.389,1125.78 1056.22,1060.61 1151.5,1028C 1171.25,1022.1 1191.25,1018.27 1211.5,1016.5 Z"/></g>
<g><path style="opacity:0.999" fill="#f28425" d="M 2948.5,1053.5 C 2952.9,1056.89 2956.56,1060.89 2959.5,1065.5C 2959.5,1644.5 2959.5,2223.5 2959.5,2802.5C 2955.5,2801.4 2951.84,2799.73 2948.5,2797.5C 2948.5,2216.17 2948.5,1634.83 2948.5,1053.5 Z"/></g>
<g><path style="opacity:0.999" fill="#f38425" d="M 2959.5,1065.5 C 2973.86,1079.89 2987.52,1094.89 3000.5,1110.5C 3000.5,1680.83 3000.5,2251.17 3000.5,2821.5C 2986.65,2815.41 2972.98,2809.07 2959.5,2802.5C 2959.5,2223.5 2959.5,1644.5 2959.5,1065.5 Z"/></g>
<g><path style="opacity:0.999" fill="#f48723" d="M 3000.5,1110.5 C 3030.43,1145.69 3058.43,1182.36 3084.5,1220.5C 3084.5,1718.5 3084.5,2216.5 3084.5,2714.5C 3058.7,2751.96 3030.7,2787.62 3000.5,2821.5C 3000.5,2251.17 3000.5,1680.83 3000.5,1110.5 Z"/></g>
<g><path style="opacity:0.998" fill="#f58c21" d="M 3084.5,1220.5 C 3134.11,1291.35 3175.78,1367.02 3209.5,1447.5C 3209.5,1795.5 3209.5,2143.5 3209.5,2491.5C 3175.23,2570.4 3133.57,2644.74 3084.5,2714.5C 3084.5,2216.5 3084.5,1718.5 3084.5,1220.5 Z"/></g>
<g><path style="opacity:0.998" fill="#db2258" d="M 857.5,1551.5 C 857.5,1920.17 857.5,2288.83 857.5,2657.5C 811.264,2583.36 773.264,2505.02 743.5,2422.5C 743.5,2122.17 743.5,1821.83 743.5,1521.5C 757.077,1481.94 772.91,1443.28 791,1405.5C 805.352,1457.86 827.519,1506.53 857.5,1551.5 Z"/></g>
<g><path style="opacity:0.998" fill="#f58f1e" d="M 3209.5,1447.5 C 3213.59,1454.76 3216.93,1462.43 3219.5,1470.5C 3219.5,1803.17 3219.5,2135.83 3219.5,2468.5C 3216.54,2476.41 3213.2,2484.08 3209.5,2491.5C 3209.5,2143.5 3209.5,1795.5 3209.5,1447.5 Z"/></g>
<g><path style="opacity:0.993" fill="#f6911e" d="M 3219.5,1470.5 C 3302.94,1677.11 3333.44,1891.45 3311,2113.5C 3297.84,2236.48 3267.34,2354.81 3219.5,2468.5C 3219.5,2135.83 3219.5,1803.17 3219.5,1470.5 Z"/></g>
<g><path style="opacity:0.996" fill="#db1e5a" d="M 743.5,1521.5 C 743.5,1821.83 743.5,2122.17 743.5,2422.5C 730.998,2389.85 720.331,2356.52 711.5,2322.5C 711.5,2089.17 711.5,1855.83 711.5,1622.5C 720.186,1588.11 730.852,1554.45 743.5,1521.5 Z"/></g>
<g><path style="opacity:0.998" fill="#db2556" d="M 857.5,1551.5 C 864.742,1560.98 871.742,1570.65 878.5,1580.5C 878.5,1950.5 878.5,2320.5 878.5,2690.5C 871.139,2679.79 864.139,2668.79 857.5,2657.5C 857.5,2288.83 857.5,1920.17 857.5,1551.5 Z"/></g>
<g><path style="opacity:0.999" fill="#dd2855" d="M 878.5,1580.5 C 914.368,1623.72 956.035,1660.05 1003.5,1689.5C 1003.5,2076.83 1003.5,2464.17 1003.5,2851.5C 956.895,2801.57 915.229,2747.91 878.5,2690.5C 878.5,2320.5 878.5,1950.5 878.5,1580.5 Z"/></g>
<g><path style="opacity:0.987" fill="#da1d5b" d="M 711.5,1622.5 C 711.5,1855.83 711.5,2089.17 711.5,2322.5C 671.737,2180.21 656.904,2035.21 667,1887.5C 672.777,1797.51 687.61,1709.17 711.5,1622.5 Z"/></g>
<g><path style="opacity:0.999" fill="#de2d52" d="M 1003.5,1689.5 C 1036.26,1708.76 1070.93,1723.76 1107.5,1734.5C 1107.5,2141.5 1107.5,2548.5 1107.5,2955.5C 1070.48,2923.15 1035.81,2888.48 1003.5,2851.5C 1003.5,2464.17 1003.5,2076.83 1003.5,1689.5 Z"/></g>
<g><path style="opacity:0.999" fill="#df3051" d="M 1107.5,1734.5 C 1117.86,1737.73 1128.19,1740.73 1138.5,1743.5C 1138.5,2156.17 1138.5,2568.83 1138.5,2981.5C 1127.61,2973.55 1117.28,2964.88 1107.5,2955.5C 1107.5,2548.5 1107.5,2141.5 1107.5,1734.5 Z"/></g>
<g><path style="opacity:0.997" fill="#df334f" d="M 1138.5,1743.5 C 1162.35,1748.1 1186.35,1751.77 1210.5,1754.5C 1157.26,1950.49 1174.92,2139.83 1263.5,2322.5C 1263.5,2573.17 1263.5,2823.83 1263.5,3074.5C 1219.83,3046.17 1178.17,3015.17 1138.5,2981.5C 1138.5,2568.83 1138.5,2156.17 1138.5,1743.5 Z"/></g>
<g><path style="opacity:0.998" fill="#e1374d" d="M 1263.5,2322.5 C 1273.58,2341.65 1283.91,2360.65 1294.5,2379.5C 1294.5,2617.5 1294.5,2855.5 1294.5,3093.5C 1283.92,3087.59 1273.59,3081.26 1263.5,3074.5C 1263.5,2823.83 1263.5,2573.17 1263.5,2322.5 Z"/></g>
<g><path style="opacity:0.995" fill="#f0772c" d="M 2709.5,2344.5 C 2709.5,2459.5 2709.5,2574.5 2709.5,2689.5C 2695.19,2683.68 2681.19,2677.34 2667.5,2670.5C 2667.5,2585.17 2667.5,2499.83 2667.5,2414.5C 2682.52,2391.79 2696.52,2368.46 2709.5,2344.5 Z"/></g>
<g><path style="opacity:0.998" fill="#e13a4b" d="M 1294.5,2379.5 C 1324.54,2428.54 1359.21,2474.21 1398.5,2516.5C 1398.5,2728.17 1398.5,2939.83 1398.5,3151.5C 1362.53,3134.19 1327.87,3114.86 1294.5,3093.5C 1294.5,2855.5 1294.5,2617.5 1294.5,2379.5 Z"/></g>
<g><path style="opacity:0.987" fill="#ef732e" d="M 2667.5,2414.5 C 2667.5,2499.83 2667.5,2585.17 2667.5,2670.5C 2649.65,2663.16 2631.98,2655.32 2614.5,2647C 2586.04,2637.49 2563.2,2644.99 2546,2669.5C 2540.45,2679.27 2537.95,2689.77 2538.5,2701C 2545.14,2854.4 2551.14,3007.74 2556.5,3161C 2548.67,3164.99 2540.67,3168.49 2532.5,3171.5C 2532.5,2970.5 2532.5,2769.5 2532.5,2568.5C 2584.12,2522.58 2629.12,2471.24 2667.5,2414.5 Z"/></g>
<g><path style="opacity:0.998" fill="#e23d4a" d="M 1398.5,2516.5 C 1408.5,2527.17 1418.83,2537.5 1429.5,2547.5C 1429.5,2753.83 1429.5,2960.17 1429.5,3166.5C 1418.98,3161.74 1408.65,3156.74 1398.5,3151.5C 1398.5,2939.83 1398.5,2728.17 1398.5,2516.5 Z"/></g>
<g><path style="opacity:0.998" fill="#e34148" d="M 1429.5,2547.5 C 1471.61,2587.19 1516.95,2622.53 1565.5,2653.5C 1565.5,2842.5 1565.5,3031.5 1565.5,3220.5C 1519.05,3205.27 1473.72,3187.27 1429.5,3166.5C 1429.5,2960.17 1429.5,2753.83 1429.5,2547.5 Z"/></g>
<g><path style="opacity:0.998" fill="#ee6e30" d="M 2532.5,2568.5 C 2532.5,2769.5 2532.5,2970.5 2532.5,3171.5C 2508.65,3182.79 2484.31,3193.12 2459.5,3202.5C 2459.5,3010.17 2459.5,2817.83 2459.5,2625.5C 2484.74,2607.71 2509.07,2588.71 2532.5,2568.5 Z"/></g>
<g><path style="opacity:0.998" fill="#ed6d31" d="M 2459.5,2625.5 C 2459.5,2817.83 2459.5,3010.17 2459.5,3202.5C 2456.09,3203.64 2452.75,3204.97 2449.5,3206.5C 2449.5,3015.17 2449.5,2823.83 2449.5,2632.5C 2452.83,2630.17 2456.17,2627.83 2459.5,2625.5 Z"/></g>
<g><path style="opacity:0.998" fill="#ed6b32" d="M 2449.5,2632.5 C 2449.5,2823.83 2449.5,3015.17 2449.5,3206.5C 2432.24,3212.7 2414.9,3218.7 2397.5,3224.5C 2397.5,3038.17 2397.5,2851.83 2397.5,2665.5C 2415.14,2655.01 2432.47,2644.01 2449.5,2632.5 Z"/></g>
<g><path style="opacity:0.998" fill="#e44645" d="M 1565.5,2653.5 C 1595.71,2671.11 1626.71,2687.44 1658.5,2702.5C 1658.5,2884.5 1658.5,3066.5 1658.5,3248.5C 1627.06,3240.35 1596.06,3231.02 1565.5,3220.5C 1565.5,3031.5 1565.5,2842.5 1565.5,2653.5 Z"/></g>
<g><path style="opacity:0.998" fill="#ec6634" d="M 2397.5,2665.5 C 2397.5,2851.83 2397.5,3038.17 2397.5,3224.5C 2346.32,3240.96 2294.32,3254.3 2241.5,3264.5C 2241.5,3087.5 2241.5,2910.5 2241.5,2733.5C 2295.66,2715.75 2347.66,2693.08 2397.5,2665.5 Z"/></g>
<g><path style="opacity:0.998" fill="#e54944" d="M 1658.5,2702.5 C 1668.72,2707.11 1679.05,2711.44 1689.5,2715.5C 1689.5,2895.5 1689.5,3075.5 1689.5,3255.5C 1679.13,3253.32 1668.8,3250.99 1658.5,3248.5C 1658.5,3066.5 1658.5,2884.5 1658.5,2702.5 Z"/></g>
<g><path style="opacity:0.998" fill="#e64d41" d="M 1689.5,2715.5 C 1740.24,2735.97 1792.57,2750.97 1846.5,2760.5C 1846.5,2934.17 1846.5,3107.83 1846.5,3281.5C 1793.51,3276.61 1741.17,3267.95 1689.5,3255.5C 1689.5,3075.5 1689.5,2895.5 1689.5,2715.5 Z"/></g>
<g><path style="opacity:0.996" fill="#00e7ff" d="M 2648.5,2724.5 C 2661.72,2723.54 2674.38,2725.7 2686.5,2731C 2894.53,2830.02 3102.53,2929.02 3310.5,3028C 3083.58,3181.71 2856.75,3335.54 2630,3489.5C 2616.69,3257.53 2603.85,3025.53 2591.5,2793.5C 2592.63,2755.7 2611.63,2732.7 2648.5,2724.5 Z"/></g>
<g><path style="opacity:0.998" fill="#ea6137" d="M 2241.5,2733.5 C 2241.5,2910.5 2241.5,3087.5 2241.5,3264.5C 2213.99,3269.92 2186.32,3274.59 2158.5,3278.5C 2158.5,3104.17 2158.5,2929.83 2158.5,2755.5C 2186.55,2749.57 2214.21,2742.24 2241.5,2733.5 Z"/></g>
<g><path style="opacity:0.998" fill="#ea5e39" d="M 2158.5,2755.5 C 2158.5,2929.83 2158.5,3104.17 2158.5,3278.5C 2144.54,3280.2 2130.54,3281.53 2116.5,3282.5C 2116.5,3109.5 2116.5,2936.5 2116.5,2763.5C 2130.49,2760.97 2144.49,2758.3 2158.5,2755.5 Z"/></g>
<g><path style="opacity:0.998" fill="#e7523f" d="M 1846.5,2760.5 C 1863.7,2763.81 1881.03,2766.48 1898.5,2768.5C 1898.5,2941.17 1898.5,3113.83 1898.5,3286.5C 1880.96,3285.48 1863.63,3283.82 1846.5,3281.5C 1846.5,3107.83 1846.5,2934.17 1846.5,2760.5 Z"/></g>
<g><path style="opacity:0.998" fill="#e95a3b" d="M 2116.5,2763.5 C 2116.5,2936.5 2116.5,3109.5 2116.5,3282.5C 2071.78,3287.31 2026.78,3289.64 1981.5,3289.5C 1981.5,3117.5 1981.5,2945.5 1981.5,2773.5C 2026.74,2773.33 2071.74,2769.99 2116.5,2763.5 Z"/></g>
<g><path style="opacity:0.999" fill="#e7543e" d="M 1898.5,2768.5 C 1901.86,2768.62 1905.19,2768.95 1908.5,2769.5C 1908.5,2942.17 1908.5,3114.83 1908.5,3287.5C 1905.27,3286.59 1901.94,3286.25 1898.5,3286.5C 1898.5,3113.83 1898.5,2941.17 1898.5,2768.5 Z"/></g>
<g><path style="opacity:0.998" fill="#e8553d" d="M 1908.5,2769.5 C 1932.78,2771.69 1957.11,2773.03 1981.5,2773.5C 1981.5,2945.5 1981.5,3117.5 1981.5,3289.5C 1957.16,3288.99 1932.83,3288.32 1908.5,3287.5C 1908.5,3114.83 1908.5,2942.17 1908.5,2769.5 Z"/></g>
</svg>
