<?xml version="1.0" encoding="UTF-8"?>
<svg xmlns="http://www.w3.org/2000/svg" xmlns:xlink="http://www.w3.org/1999/xlink" width="50px" height="50px" viewBox="0 0 50 50" version="1.1">
<defs>
<filter id="alpha" filterUnits="objectBoundingBox" x="0%" y="0%" width="100%" height="100%">
  <feColorMatrix type="matrix" in="SourceGraphic" values="0 0 0 0 1 0 0 0 0 1 0 0 0 0 1 0 0 0 1 0"/>
</filter>
<mask id="mask0">
  <g filter="url(#alpha)">
<rect x="0" y="0" width="50" height="50" style="fill:rgb(0%,0%,0%);fill-opacity:0.996078;stroke:none;"/>
  </g>
</mask>
<clipPath id="clip1">
  <rect x="0" y="0" width="50" height="50"/>
</clipPath>
<g id="surface5" clip-path="url(#clip1)">
<path style=" stroke:none;fill-rule:evenodd;fill:rgb(90.980392%,33.333333%,23.921569%);fill-opacity:1;" d="M 23.777344 7.734375 C 23.777344 9.796875 23.777344 11.859375 23.777344 13.925781 C 23.484375 13.933594 23.191406 13.949219 22.898438 13.972656 C 22.898438 11.90625 22.898438 9.835938 22.898438 7.769531 C 23.191406 7.75 23.480469 7.738281 23.777344 7.734375 Z M 23.777344 7.734375 "/>
</g>
<mask id="mask1">
  <g filter="url(#alpha)">
<rect x="0" y="0" width="50" height="50" style="fill:rgb(0%,0%,0%);fill-opacity:0.996078;stroke:none;"/>
  </g>
</mask>
<clipPath id="clip2">
  <rect x="0" y="0" width="50" height="50"/>
</clipPath>
<g id="surface8" clip-path="url(#clip2)">
<path style=" stroke:none;fill-rule:evenodd;fill:rgb(91.372549%,35.294118%,23.137255%);fill-opacity:1;" d="M 23.777344 7.734375 C 24.316406 7.738281 24.855469 7.761719 25.394531 7.804688 C 25.394531 9.890625 25.394531 11.972656 25.394531 14.058594 C 24.859375 13.972656 24.320312 13.925781 23.777344 13.925781 C 23.777344 11.859375 23.777344 9.796875 23.777344 7.734375 Z M 23.777344 7.734375 "/>
</g>
<mask id="mask2">
  <g filter="url(#alpha)">
<rect x="0" y="0" width="50" height="50" style="fill:rgb(0%,0%,0%);fill-opacity:0.996078;stroke:none;"/>
  </g>
</mask>
<clipPath id="clip3">
  <rect x="0" y="0" width="50" height="50"/>
</clipPath>
<g id="surface11" clip-path="url(#clip3)">
<path style=" stroke:none;fill-rule:evenodd;fill:rgb(90.588235%,32.156863%,24.705882%);fill-opacity:1;" d="M 22.78125 7.769531 C 22.78125 9.839844 22.78125 11.914062 22.78125 13.984375 C 22.574219 14.015625 22.363281 14.046875 22.15625 14.082031 C 22.15625 11.996094 22.15625 9.914062 22.15625 7.828125 C 22.363281 7.804688 22.570312 7.78125 22.78125 7.769531 Z M 22.78125 7.769531 "/>
</g>
<mask id="mask3">
  <g filter="url(#alpha)">
<rect x="0" y="0" width="50" height="50" style="fill:rgb(0%,0%,0%);fill-opacity:0.996078;stroke:none;"/>
  </g>
</mask>
<clipPath id="clip4">
  <rect x="0" y="0" width="50" height="50"/>
</clipPath>
<g id="surface14" clip-path="url(#clip4)">
<path style=" stroke:none;fill-rule:evenodd;fill:rgb(91.764706%,36.862745%,22.352941%);fill-opacity:1;" d="M 25.394531 7.804688 C 25.5625 7.828125 25.730469 7.847656 25.898438 7.867188 C 25.898438 9.960938 25.898438 12.058594 25.898438 14.152344 C 25.734375 14.117188 25.566406 14.085938 25.394531 14.058594 C 25.394531 11.972656 25.394531 9.890625 25.394531 7.804688 Z M 25.394531 7.804688 "/>
</g>
<mask id="mask4">
  <g filter="url(#alpha)">
<rect x="0" y="0" width="50" height="50" style="fill:rgb(0%,0%,0%);fill-opacity:0.996078;stroke:none;"/>
  </g>
</mask>
<clipPath id="clip5">
  <rect x="0" y="0" width="50" height="50"/>
</clipPath>
<g id="surface17" clip-path="url(#clip5)">
<path style=" stroke:none;fill-rule:evenodd;fill:rgb(90.196078%,30.196078%,25.490196%);fill-opacity:1;" d="M 22.15625 7.828125 C 22.15625 9.914062 22.15625 11.996094 22.15625 14.082031 C 21.554688 14.199219 20.964844 14.367188 20.390625 14.585938 C 20.359375 14.390625 20.320312 14.199219 20.273438 14.007812 C 20.273438 12.054688 20.273438 10.097656 20.273438 8.140625 C 20.894531 7.996094 21.519531 7.890625 22.15625 7.828125 Z M 22.15625 7.828125 "/>
</g>
<mask id="mask5">
  <g filter="url(#alpha)">
<rect x="0" y="0" width="50" height="50" style="fill:rgb(0%,0%,0%);fill-opacity:0.996078;stroke:none;"/>
  </g>
</mask>
<clipPath id="clip6">
  <rect x="0" y="0" width="50" height="50"/>
</clipPath>
<g id="surface20" clip-path="url(#clip6)">
<path style=" stroke:none;fill-rule:evenodd;fill:rgb(91.764706%,38.039216%,21.568627%);fill-opacity:1;" d="M 25.898438 7.867188 C 26.234375 7.910156 26.566406 7.960938 26.894531 8.019531 C 26.894531 10.15625 26.894531 12.292969 26.894531 14.429688 C 26.570312 14.320312 26.238281 14.226562 25.898438 14.152344 C 25.898438 12.058594 25.898438 9.960938 25.898438 7.867188 Z M 25.898438 7.867188 "/>
</g>
<mask id="mask6">
  <g filter="url(#alpha)">
<rect x="0" y="0" width="50" height="50" style="fill:rgb(0%,0%,0%);fill-opacity:0.996078;stroke:none;"/>
  </g>
</mask>
<clipPath id="clip7">
  <rect x="0" y="0" width="50" height="50"/>
</clipPath>
<g id="surface23" clip-path="url(#clip7)">
<path style=" stroke:none;fill-rule:evenodd;fill:rgb(92.54902%,40%,20.392157%);fill-opacity:1;" d="M 26.894531 8.019531 C 27.527344 8.148438 28.152344 8.308594 28.769531 8.5 C 28.769531 10.761719 28.769531 13.019531 28.769531 15.28125 C 28.175781 14.933594 27.550781 14.648438 26.894531 14.429688 C 26.894531 12.292969 26.894531 10.15625 26.894531 8.019531 Z M 26.894531 8.019531 "/>
</g>
<mask id="mask7">
  <g filter="url(#alpha)">
<rect x="0" y="0" width="50" height="50" style="fill:rgb(0%,0%,0%);fill-opacity:0.996078;stroke:none;"/>
  </g>
</mask>
<clipPath id="clip8">
  <rect x="0" y="0" width="50" height="50"/>
</clipPath>
<g id="surface26" clip-path="url(#clip8)">
<path style=" stroke:none;fill-rule:evenodd;fill:rgb(89.803922%,28.627451%,26.666667%);fill-opacity:1;" d="M 20.273438 8.140625 C 20.273438 10.097656 20.273438 12.054688 20.273438 14.007812 C 20.171875 13.671875 20.046875 13.34375 19.902344 13.023438 C 19.902344 11.425781 19.902344 9.824219 19.902344 8.226562 C 20.023438 8.195312 20.148438 8.167969 20.273438 8.140625 Z M 20.273438 8.140625 "/>
</g>
<mask id="mask8">
  <g filter="url(#alpha)">
<rect x="0" y="0" width="50" height="50" style="fill:rgb(0%,0%,0%);fill-opacity:0.996078;stroke:none;"/>
  </g>
</mask>
<clipPath id="clip9">
  <rect x="0" y="0" width="50" height="50"/>
</clipPath>
<g id="surface29" clip-path="url(#clip9)">
<path style=" stroke:none;fill-rule:evenodd;fill:rgb(89.411765%,27.45098%,27.058824%);fill-opacity:1;" d="M 19.902344 8.226562 C 19.902344 9.824219 19.902344 11.425781 19.902344 13.023438 C 19.609375 12.460938 19.234375 11.949219 18.785156 11.5 C 18.785156 10.519531 18.785156 9.542969 18.785156 8.5625 C 19.152344 8.4375 19.523438 8.324219 19.902344 8.226562 Z M 19.902344 8.226562 "/>
</g>
<mask id="mask9">
  <g filter="url(#alpha)">
<rect x="0" y="0" width="50" height="50" style="fill:rgb(0%,0%,0%);fill-opacity:0.996078;stroke:none;"/>
  </g>
</mask>
<clipPath id="clip10">
  <rect x="0" y="0" width="50" height="50"/>
</clipPath>
<g id="surface32" clip-path="url(#clip10)">
<path style=" stroke:none;fill-rule:evenodd;fill:rgb(92.941176%,41.960784%,19.607843%);fill-opacity:1;" d="M 28.769531 8.5 C 28.976562 8.570312 29.183594 8.644531 29.390625 8.71875 C 29.390625 11.039062 29.390625 13.355469 29.390625 15.675781 C 29.1875 15.539062 28.980469 15.40625 28.769531 15.28125 C 28.769531 13.019531 28.769531 10.761719 28.769531 8.5 Z M 28.769531 8.5 "/>
</g>
<mask id="mask10">
  <g filter="url(#alpha)">
<rect x="0" y="0" width="50" height="50" style="fill:rgb(0%,0%,0%);fill-opacity:0.992157;stroke:none;"/>
  </g>
</mask>
<clipPath id="clip11">
  <rect x="0" y="0" width="50" height="50"/>
</clipPath>
<g id="surface35" clip-path="url(#clip11)">
<path style=" stroke:none;fill-rule:evenodd;fill:rgb(89.019608%,25.882353%,27.843137%);fill-opacity:1;" d="M 18.785156 8.5625 C 18.785156 9.542969 18.785156 10.519531 18.785156 11.5 C 18.308594 11.035156 17.765625 10.664062 17.152344 10.398438 C 17.152344 10.003906 17.152344 9.613281 17.152344 9.222656 C 17.683594 8.96875 18.226562 8.75 18.785156 8.5625 Z M 18.785156 8.5625 "/>
</g>
<mask id="mask11">
  <g filter="url(#alpha)">
<rect x="0" y="0" width="50" height="50" style="fill:rgb(0%,0%,0%);fill-opacity:0.996078;stroke:none;"/>
  </g>
</mask>
<clipPath id="clip12">
  <rect x="0" y="0" width="50" height="50"/>
</clipPath>
<g id="surface38" clip-path="url(#clip12)">
<path style=" stroke:none;fill-rule:evenodd;fill:rgb(92.941176%,42.745098%,19.215686%);fill-opacity:1;" d="M 29.390625 8.71875 C 29.433594 8.730469 29.472656 8.746094 29.511719 8.765625 C 29.511719 11.097656 29.511719 13.429688 29.511719 15.761719 C 29.46875 15.738281 29.425781 15.710938 29.390625 15.675781 C 29.390625 13.355469 29.390625 11.039062 29.390625 8.71875 Z M 29.390625 8.71875 "/>
</g>
<mask id="mask12">
  <g filter="url(#alpha)">
<rect x="0" y="0" width="50" height="50" style="fill:rgb(0%,0%,0%);fill-opacity:0.996078;stroke:none;"/>
  </g>
</mask>
<clipPath id="clip13">
  <rect x="0" y="0" width="50" height="50"/>
</clipPath>
<g id="surface41" clip-path="url(#clip13)">
<path style=" stroke:none;fill-rule:evenodd;fill:rgb(93.333333%,43.137255%,18.823529%);fill-opacity:1;" d="M 29.511719 8.765625 C 29.808594 8.875 30.101562 8.996094 30.386719 9.125 C 30.386719 11.574219 30.386719 14.019531 30.386719 16.46875 C 30.105469 16.21875 29.8125 15.984375 29.511719 15.761719 C 29.511719 13.429688 29.511719 11.097656 29.511719 8.765625 Z M 29.511719 8.765625 "/>
</g>
<mask id="mask13">
  <g filter="url(#alpha)">
<rect x="0" y="0" width="50" height="50" style="fill:rgb(0%,0%,0%);fill-opacity:0.996078;stroke:none;"/>
  </g>
</mask>
<clipPath id="clip14">
  <rect x="0" y="0" width="50" height="50"/>
</clipPath>
<g id="surface44" clip-path="url(#clip14)">
<path style=" stroke:none;fill-rule:evenodd;fill:rgb(93.72549%,45.098039%,18.039216%);fill-opacity:1;" d="M 30.386719 9.125 C 30.949219 9.371094 31.488281 9.652344 32.007812 9.964844 C 32.007812 12.753906 32.007812 15.539062 32.007812 18.328125 C 31.542969 17.648438 31.003906 17.027344 30.386719 16.46875 C 30.386719 14.019531 30.386719 11.574219 30.386719 9.125 Z M 30.386719 9.125 "/>
</g>
<mask id="mask14">
  <g filter="url(#alpha)">
<rect x="0" y="0" width="50" height="50" style="fill:rgb(0%,0%,0%);fill-opacity:0.988235;stroke:none;"/>
  </g>
</mask>
<clipPath id="clip15">
  <rect x="0" y="0" width="50" height="50"/>
</clipPath>
<g id="surface47" clip-path="url(#clip15)">
<path style=" stroke:none;fill-rule:evenodd;fill:rgb(88.627451%,23.921569%,29.019608%);fill-opacity:1;" d="M 17.152344 9.222656 C 17.152344 9.613281 17.152344 10.003906 17.152344 10.398438 C 17.03125 10.34375 16.90625 10.289062 16.78125 10.242188 C 16.78125 9.960938 16.78125 9.679688 16.78125 9.402344 C 16.898438 9.332031 17.023438 9.273438 17.152344 9.222656 Z M 17.152344 9.222656 "/>
</g>
<mask id="mask15">
  <g filter="url(#alpha)">
<rect x="0" y="0" width="50" height="50" style="fill:rgb(0%,0%,0%);fill-opacity:0.972549;stroke:none;"/>
  </g>
</mask>
<clipPath id="clip16">
  <rect x="0" y="0" width="50" height="50"/>
</clipPath>
<g id="surface50" clip-path="url(#clip16)">
<path style=" stroke:none;fill-rule:evenodd;fill:rgb(88.235294%,23.137255%,29.411765%);fill-opacity:1;" d="M 16.78125 9.402344 C 16.78125 9.679688 16.78125 9.960938 16.78125 10.242188 C 16.4375 10.125 16.089844 10.035156 15.738281 9.972656 C 16.074219 9.761719 16.421875 9.574219 16.78125 9.402344 Z M 16.78125 9.402344 "/>
</g>
<mask id="mask16">
  <g filter="url(#alpha)">
<rect x="0" y="0" width="50" height="50" style="fill:rgb(0%,0%,0%);fill-opacity:0.996078;stroke:none;"/>
  </g>
</mask>
<clipPath id="clip17">
  <rect x="0" y="0" width="50" height="50"/>
</clipPath>
<g id="surface53" clip-path="url(#clip17)">
<path style=" stroke:none;fill-rule:evenodd;fill:rgb(94.117647%,46.666667%,17.254902%);fill-opacity:1;" d="M 32.007812 9.964844 C 32.179688 10.0625 32.347656 10.167969 32.511719 10.277344 C 32.511719 13.242188 32.511719 16.203125 32.511719 19.167969 C 32.347656 18.882812 32.179688 18.605469 32.007812 18.328125 C 32.007812 15.539062 32.007812 12.753906 32.007812 9.964844 Z M 32.007812 9.964844 "/>
</g>
<mask id="mask17">
  <g filter="url(#alpha)">
<rect x="0" y="0" width="50" height="50" style="fill:rgb(0%,0%,0%);fill-opacity:0.996078;stroke:none;"/>
  </g>
</mask>
<clipPath id="clip18">
  <rect x="0" y="0" width="50" height="50"/>
</clipPath>
<g id="surface56" clip-path="url(#clip18)">
<path style=" stroke:none;fill-rule:evenodd;fill:rgb(94.117647%,47.843137%,16.470588%);fill-opacity:1;" d="M 32.511719 10.277344 C 32.898438 10.523438 33.277344 10.789062 33.640625 11.070312 C 33.640625 18.308594 33.640625 25.546875 33.640625 32.789062 C 33.261719 32.621094 32.882812 32.449219 32.511719 32.269531 C 32.511719 30.890625 32.511719 29.511719 32.511719 28.132812 C 33.546875 26.121094 33.855469 24 33.441406 21.773438 C 33.253906 20.859375 32.941406 19.992188 32.511719 19.167969 C 32.511719 16.203125 32.511719 13.242188 32.511719 10.277344 Z M 32.511719 10.277344 "/>
</g>
<mask id="mask18">
  <g filter="url(#alpha)">
<rect x="0" y="0" width="50" height="50" style="fill:rgb(0%,0%,0%);fill-opacity:0.996078;stroke:none;"/>
  </g>
</mask>
<clipPath id="clip19">
  <rect x="0" y="0" width="50" height="50"/>
</clipPath>
<g id="surface59" clip-path="url(#clip19)">
<path style=" stroke:none;fill-rule:evenodd;fill:rgb(0%,90.588235%,100%);fill-opacity:1;" d="M 14.535156 12.195312 C 15.671875 12.15625 16.589844 12.574219 17.289062 13.457031 C 17.941406 14.386719 18.085938 15.390625 17.722656 16.46875 C 17.304688 17.503906 16.554688 18.160156 15.472656 18.441406 C 14.445312 18.652344 13.527344 18.433594 12.714844 17.78125 C 11.789062 16.945312 11.4375 15.914062 11.664062 14.679688 C 11.957031 13.507812 12.671875 12.726562 13.816406 12.335938 C 14.054688 12.265625 14.292969 12.21875 14.535156 12.195312 Z M 14.535156 12.195312 "/>
</g>
<mask id="mask19">
  <g filter="url(#alpha)">
<rect x="0" y="0" width="50" height="50" style="fill:rgb(0%,0%,0%);fill-opacity:0.996078;stroke:none;"/>
  </g>
</mask>
<clipPath id="clip20">
  <rect x="0" y="0" width="50" height="50"/>
</clipPath>
<g id="surface62" clip-path="url(#clip20)">
<path style=" stroke:none;fill-rule:evenodd;fill:rgb(96.078431%,54.901961%,12.941176%);fill-opacity:1;" d="M 37.011719 14.644531 C 37.605469 15.496094 38.105469 16.402344 38.511719 17.367188 C 38.511719 21.542969 38.511719 25.71875 38.511719 29.894531 C 38.101562 30.84375 37.601562 31.734375 37.011719 32.570312 C 37.011719 26.597656 37.011719 20.621094 37.011719 14.644531 Z M 37.011719 14.644531 "/>
</g>
<mask id="mask20">
  <g filter="url(#alpha)">
<rect x="0" y="0" width="50" height="50" style="fill:rgb(0%,0%,0%);fill-opacity:0.996078;stroke:none;"/>
  </g>
</mask>
<clipPath id="clip21">
  <rect x="0" y="0" width="50" height="50"/>
</clipPath>
<g id="surface65" clip-path="url(#clip21)">
<path style=" stroke:none;fill-rule:evenodd;fill:rgb(85.882353%,13.333333%,34.509804%);fill-opacity:1;" d="M 10.289062 18.617188 C 10.289062 23.039062 10.289062 27.464844 10.289062 31.886719 C 9.734375 30.996094 9.277344 30.058594 8.921875 29.066406 C 8.921875 25.464844 8.921875 21.859375 8.921875 18.257812 C 9.085938 17.78125 9.273438 17.316406 9.492188 16.863281 C 9.664062 17.492188 9.929688 18.078125 10.289062 18.617188 Z M 10.289062 18.617188 "/>
</g>
<mask id="mask21">
  <g filter="url(#alpha)">
<rect x="0" y="0" width="50" height="50" style="fill:rgb(0%,0%,0%);fill-opacity:0.996078;stroke:none;"/>
  </g>
</mask>
<clipPath id="clip22">
  <rect x="0" y="0" width="50" height="50"/>
</clipPath>
<g id="surface68" clip-path="url(#clip22)">
<path style=" stroke:none;fill-rule:evenodd;fill:rgb(96.078431%,56.078431%,11.764706%);fill-opacity:1;" d="M 38.511719 17.367188 C 38.558594 17.457031 38.601562 17.546875 38.632812 17.644531 C 38.632812 21.636719 38.632812 25.628906 38.632812 29.621094 C 38.59375 29.714844 38.554688 29.804688 38.511719 29.894531 C 38.511719 25.71875 38.511719 21.542969 38.511719 17.367188 Z M 38.511719 17.367188 "/>
</g>
<mask id="mask22">
  <g filter="url(#alpha)">
<rect x="0" y="0" width="50" height="50" style="fill:rgb(0%,0%,0%);fill-opacity:0.992157;stroke:none;"/>
  </g>
</mask>
<clipPath id="clip23">
  <rect x="0" y="0" width="50" height="50"/>
</clipPath>
<g id="surface71" clip-path="url(#clip23)">
<path style=" stroke:none;fill-rule:evenodd;fill:rgb(96.470588%,56.862745%,11.764706%);fill-opacity:1;" d="M 38.632812 17.644531 C 39.632812 20.125 40 22.695312 39.730469 25.359375 C 39.570312 26.835938 39.203125 28.253906 38.632812 29.621094 C 38.632812 25.628906 38.632812 21.636719 38.632812 17.644531 Z M 38.632812 17.644531 "/>
</g>
<mask id="mask23">
  <g filter="url(#alpha)">
<rect x="0" y="0" width="50" height="50" style="fill:rgb(0%,0%,0%);fill-opacity:0.996078;stroke:none;"/>
  </g>
</mask>
<clipPath id="clip24">
  <rect x="0" y="0" width="50" height="50"/>
</clipPath>
<g id="surface74" clip-path="url(#clip24)">
<path style=" stroke:none;fill-rule:evenodd;fill:rgb(85.882353%,11.764706%,35.294118%);fill-opacity:1;" d="M 8.921875 18.257812 C 8.921875 21.859375 8.921875 25.464844 8.921875 29.066406 C 8.769531 28.675781 8.644531 28.277344 8.539062 27.867188 C 8.539062 25.066406 8.539062 22.269531 8.539062 19.46875 C 8.640625 19.054688 8.769531 18.652344 8.921875 18.257812 Z M 8.921875 18.257812 "/>
</g>
<mask id="mask24">
  <g filter="url(#alpha)">
<rect x="0" y="0" width="50" height="50" style="fill:rgb(0%,0%,0%);fill-opacity:0.996078;stroke:none;"/>
  </g>
</mask>
<clipPath id="clip25">
  <rect x="0" y="0" width="50" height="50"/>
</clipPath>
<g id="surface77" clip-path="url(#clip25)">
<path style=" stroke:none;fill-rule:evenodd;fill:rgb(85.882353%,14.509804%,33.72549%);fill-opacity:1;" d="M 10.289062 18.617188 C 10.375 18.730469 10.460938 18.847656 10.542969 18.964844 C 10.542969 23.402344 10.542969 27.84375 10.542969 32.285156 C 10.453125 32.15625 10.367188 32.023438 10.289062 31.886719 C 10.289062 27.464844 10.289062 23.039062 10.289062 18.617188 Z M 10.289062 18.617188 "/>
</g>
<mask id="mask25">
  <g filter="url(#alpha)">
<rect x="0" y="0" width="50" height="50" style="fill:rgb(0%,0%,0%);fill-opacity:0.988235;stroke:none;"/>
  </g>
</mask>
<clipPath id="clip26">
  <rect x="0" y="0" width="50" height="50"/>
</clipPath>
<g id="surface80" clip-path="url(#clip26)">
<path style=" stroke:none;fill-rule:evenodd;fill:rgb(85.490196%,11.372549%,35.686275%);fill-opacity:1;" d="M 8.539062 19.46875 C 8.539062 22.269531 8.539062 25.066406 8.539062 27.867188 C 8.058594 26.160156 7.882812 24.421875 8.003906 22.648438 C 8.074219 21.570312 8.25 20.507812 8.539062 19.46875 Z M 8.539062 19.46875 "/>
</g>
<mask id="mask26">
  <g filter="url(#alpha)">
<rect x="0" y="0" width="50" height="50" style="fill:rgb(0%,0%,0%);fill-opacity:0.996078;stroke:none;"/>
  </g>
</mask>
<clipPath id="clip27">
  <rect x="0" y="0" width="50" height="50"/>
</clipPath>
<g id="surface83" clip-path="url(#clip27)">
<path style=" stroke:none;fill-rule:evenodd;fill:rgb(87.45098%,20%,30.980392%);fill-opacity:1;" d="M 13.660156 20.921875 C 13.945312 20.976562 14.234375 21.019531 14.523438 21.050781 C 13.886719 23.402344 14.097656 25.675781 15.160156 27.867188 C 15.160156 30.875 15.160156 33.882812 15.160156 36.890625 C 14.636719 36.550781 14.136719 36.179688 13.660156 35.773438 C 13.660156 30.824219 13.660156 25.871094 13.660156 20.921875 Z M 13.660156 20.921875 "/>
</g>
<mask id="mask27">
  <g filter="url(#alpha)">
<rect x="0" y="0" width="50" height="50" style="fill:rgb(0%,0%,0%);fill-opacity:0.996078;stroke:none;"/>
  </g>
</mask>
<clipPath id="clip28">
  <rect x="0" y="0" width="50" height="50"/>
</clipPath>
<g id="surface86" clip-path="url(#clip28)">
<path style=" stroke:none;fill-rule:evenodd;fill:rgb(88.235294%,21.568627%,30.196078%);fill-opacity:1;" d="M 15.160156 27.867188 C 15.28125 28.097656 15.40625 28.324219 15.53125 28.550781 C 15.53125 31.40625 15.53125 34.261719 15.53125 37.117188 C 15.40625 37.046875 15.28125 36.972656 15.160156 36.890625 C 15.160156 33.882812 15.160156 30.875 15.160156 27.867188 Z M 15.160156 27.867188 "/>
</g>
<mask id="mask28">
  <g filter="url(#alpha)">
<rect x="0" y="0" width="50" height="50" style="fill:rgb(0%,0%,0%);fill-opacity:0.996078;stroke:none;"/>
  </g>
</mask>
<clipPath id="clip29">
  <rect x="0" y="0" width="50" height="50"/>
</clipPath>
<g id="surface89" clip-path="url(#clip29)">
<path style=" stroke:none;fill-rule:evenodd;fill:rgb(94.117647%,46.666667%,17.254902%);fill-opacity:1;" d="M 32.511719 28.132812 C 32.511719 29.511719 32.511719 30.890625 32.511719 32.269531 C 32.339844 32.203125 32.171875 32.125 32.007812 32.042969 C 32.007812 31.019531 32.007812 29.996094 32.007812 28.972656 C 32.1875 28.699219 32.355469 28.417969 32.511719 28.132812 Z M 32.511719 28.132812 "/>
</g>
<mask id="mask29">
  <g filter="url(#alpha)">
<rect x="0" y="0" width="50" height="50" style="fill:rgb(0%,0%,0%);fill-opacity:0.996078;stroke:none;"/>
  </g>
</mask>
<clipPath id="clip30">
  <rect x="0" y="0" width="50" height="50"/>
</clipPath>
<g id="surface92" clip-path="url(#clip30)">
<path style=" stroke:none;fill-rule:evenodd;fill:rgb(88.235294%,22.745098%,29.411765%);fill-opacity:1;" d="M 15.53125 28.550781 C 15.894531 29.140625 16.308594 29.6875 16.78125 30.195312 C 16.78125 32.734375 16.78125 35.273438 16.78125 37.816406 C 16.347656 37.605469 15.933594 37.375 15.53125 37.117188 C 15.53125 34.261719 15.53125 31.40625 15.53125 28.550781 Z M 15.53125 28.550781 "/>
</g>
<mask id="mask30">
  <g filter="url(#alpha)">
<rect x="0" y="0" width="50" height="50" style="fill:rgb(0%,0%,0%);fill-opacity:0.988235;stroke:none;"/>
  </g>
</mask>
<clipPath id="clip31">
  <rect x="0" y="0" width="50" height="50"/>
</clipPath>
<g id="surface95" clip-path="url(#clip31)">
<path style=" stroke:none;fill-rule:evenodd;fill:rgb(93.72549%,45.098039%,18.039216%);fill-opacity:1;" d="M 32.007812 28.972656 C 32.007812 29.996094 32.007812 31.019531 32.007812 32.042969 C 31.792969 31.957031 31.582031 31.859375 31.371094 31.761719 C 31.03125 31.648438 30.757812 31.738281 30.550781 32.03125 C 30.484375 32.148438 30.453125 32.273438 30.460938 32.410156 C 30.539062 34.25 30.609375 36.089844 30.675781 37.929688 C 30.582031 37.976562 30.484375 38.019531 30.386719 38.054688 C 30.386719 35.644531 30.386719 33.230469 30.386719 30.820312 C 31.007812 30.269531 31.546875 29.652344 32.007812 28.972656 Z M 32.007812 28.972656 "/>
</g>
<mask id="mask31">
  <g filter="url(#alpha)">
<rect x="0" y="0" width="50" height="50" style="fill:rgb(0%,0%,0%);fill-opacity:0.996078;stroke:none;"/>
  </g>
</mask>
<clipPath id="clip32">
  <rect x="0" y="0" width="50" height="50"/>
</clipPath>
<g id="surface98" clip-path="url(#clip32)">
<path style=" stroke:none;fill-rule:evenodd;fill:rgb(88.627451%,23.921569%,29.019608%);fill-opacity:1;" d="M 16.78125 30.195312 C 16.902344 30.324219 17.023438 30.449219 17.152344 30.566406 C 17.152344 33.042969 17.152344 35.519531 17.152344 37.996094 C 17.027344 37.9375 16.902344 37.878906 16.78125 37.816406 C 16.78125 35.273438 16.78125 32.734375 16.78125 30.195312 Z M 16.78125 30.195312 "/>
</g>
<mask id="mask32">
  <g filter="url(#alpha)">
<rect x="0" y="0" width="50" height="50" style="fill:rgb(0%,0%,0%);fill-opacity:0.996078;stroke:none;"/>
  </g>
</mask>
<clipPath id="clip33">
  <rect x="0" y="0" width="50" height="50"/>
</clipPath>
<g id="surface101" clip-path="url(#clip33)">
<path style=" stroke:none;fill-rule:evenodd;fill:rgb(89.019608%,25.490196%,28.235294%);fill-opacity:1;" d="M 17.152344 30.566406 C 17.65625 31.042969 18.203125 31.46875 18.785156 31.839844 C 18.785156 34.105469 18.785156 36.375 18.785156 38.644531 C 18.226562 38.460938 17.683594 38.246094 17.152344 37.996094 C 17.152344 35.519531 17.152344 33.042969 17.152344 30.566406 Z M 17.152344 30.566406 "/>
</g>
<mask id="mask33">
  <g filter="url(#alpha)">
<rect x="0" y="0" width="50" height="50" style="fill:rgb(0%,0%,0%);fill-opacity:0.996078;stroke:none;"/>
  </g>
</mask>
<clipPath id="clip34">
  <rect x="0" y="0" width="50" height="50"/>
</clipPath>
<g id="surface104" clip-path="url(#clip34)">
<path style=" stroke:none;fill-rule:evenodd;fill:rgb(93.333333%,43.137255%,18.823529%);fill-opacity:1;" d="M 30.386719 30.820312 C 30.386719 33.230469 30.386719 35.644531 30.386719 38.054688 C 30.101562 38.191406 29.808594 38.3125 29.511719 38.425781 C 29.511719 36.121094 29.511719 33.8125 29.511719 31.503906 C 29.816406 31.289062 30.105469 31.0625 30.386719 30.820312 Z M 30.386719 30.820312 "/>
</g>
<mask id="mask34">
  <g filter="url(#alpha)">
<rect x="0" y="0" width="50" height="50" style="fill:rgb(0%,0%,0%);fill-opacity:0.996078;stroke:none;"/>
  </g>
</mask>
<clipPath id="clip35">
  <rect x="0" y="0" width="50" height="50"/>
</clipPath>
<g id="surface107" clip-path="url(#clip35)">
<path style=" stroke:none;fill-rule:evenodd;fill:rgb(92.941176%,42.745098%,19.215686%);fill-opacity:1;" d="M 29.511719 31.503906 C 29.511719 33.8125 29.511719 36.121094 29.511719 38.425781 C 29.472656 38.441406 29.429688 38.457031 29.390625 38.476562 C 29.390625 36.179688 29.390625 33.882812 29.390625 31.585938 C 29.429688 31.558594 29.472656 31.53125 29.511719 31.503906 Z M 29.511719 31.503906 "/>
</g>
<mask id="mask35">
  <g filter="url(#alpha)">
<rect x="0" y="0" width="50" height="50" style="fill:rgb(0%,0%,0%);fill-opacity:0.996078;stroke:none;"/>
  </g>
</mask>
<clipPath id="clip36">
  <rect x="0" y="0" width="50" height="50"/>
</clipPath>
<g id="surface110" clip-path="url(#clip36)">
<path style=" stroke:none;fill-rule:evenodd;fill:rgb(92.941176%,41.960784%,19.607843%);fill-opacity:1;" d="M 29.390625 31.585938 C 29.390625 33.882812 29.390625 36.179688 29.390625 38.476562 C 29.183594 38.550781 28.976562 38.621094 28.769531 38.691406 C 28.769531 36.457031 28.769531 34.21875 28.769531 31.984375 C 28.980469 31.859375 29.1875 31.726562 29.390625 31.585938 Z M 29.390625 31.585938 "/>
</g>
<mask id="mask36">
  <g filter="url(#alpha)">
<rect x="0" y="0" width="50" height="50" style="fill:rgb(0%,0%,0%);fill-opacity:0.996078;stroke:none;"/>
  </g>
</mask>
<clipPath id="clip37">
  <rect x="0" y="0" width="50" height="50"/>
</clipPath>
<g id="surface113" clip-path="url(#clip37)">
<path style=" stroke:none;fill-rule:evenodd;fill:rgb(89.411765%,27.45098%,27.058824%);fill-opacity:1;" d="M 18.785156 31.839844 C 19.148438 32.050781 19.519531 32.246094 19.902344 32.425781 C 19.902344 34.609375 19.902344 36.796875 19.902344 38.980469 C 19.523438 38.882812 19.152344 38.769531 18.785156 38.644531 C 18.785156 36.375 18.785156 34.105469 18.785156 31.839844 Z M 18.785156 31.839844 "/>
</g>
<mask id="mask37">
  <g filter="url(#alpha)">
<rect x="0" y="0" width="50" height="50" style="fill:rgb(0%,0%,0%);fill-opacity:0.996078;stroke:none;"/>
  </g>
</mask>
<clipPath id="clip38">
  <rect x="0" y="0" width="50" height="50"/>
</clipPath>
<g id="surface116" clip-path="url(#clip38)">
<path style=" stroke:none;fill-rule:evenodd;fill:rgb(92.54902%,40%,20.392157%);fill-opacity:1;" d="M 28.769531 31.984375 C 28.769531 34.21875 28.769531 36.457031 28.769531 38.691406 C 28.152344 38.886719 27.53125 39.046875 26.894531 39.171875 C 26.894531 37.046875 26.894531 34.921875 26.894531 32.800781 C 27.546875 32.585938 28.167969 32.3125 28.769531 31.984375 Z M 28.769531 31.984375 "/>
</g>
<mask id="mask38">
  <g filter="url(#alpha)">
<rect x="0" y="0" width="50" height="50" style="fill:rgb(0%,0%,0%);fill-opacity:0.996078;stroke:none;"/>
  </g>
</mask>
<clipPath id="clip39">
  <rect x="0" y="0" width="50" height="50"/>
</clipPath>
<g id="surface119" clip-path="url(#clip39)">
<path style=" stroke:none;fill-rule:evenodd;fill:rgb(89.803922%,28.627451%,26.666667%);fill-opacity:1;" d="M 19.902344 32.425781 C 20.023438 32.484375 20.148438 32.535156 20.273438 32.582031 C 20.273438 34.742188 20.273438 36.902344 20.273438 39.0625 C 20.148438 39.035156 20.023438 39.007812 19.902344 38.980469 C 19.902344 36.796875 19.902344 34.609375 19.902344 32.425781 Z M 19.902344 32.425781 "/>
</g>
<mask id="mask39">
  <g filter="url(#alpha)">
<rect x="0" y="0" width="50" height="50" style="fill:rgb(0%,0%,0%);fill-opacity:0.996078;stroke:none;"/>
  </g>
</mask>
<clipPath id="clip40">
  <rect x="0" y="0" width="50" height="50"/>
</clipPath>
<g id="surface122" clip-path="url(#clip40)">
<path style=" stroke:none;fill-rule:evenodd;fill:rgb(90.196078%,30.196078%,25.490196%);fill-opacity:1;" d="M 20.273438 32.582031 C 20.882812 32.828125 21.507812 33.007812 22.15625 33.125 C 22.15625 35.207031 22.15625 37.289062 22.15625 39.375 C 21.519531 39.316406 20.890625 39.210938 20.273438 39.0625 C 20.273438 36.902344 20.273438 34.742188 20.273438 32.582031 Z M 20.273438 32.582031 "/>
</g>
<mask id="mask40">
  <g filter="url(#alpha)">
<rect x="0" y="0" width="50" height="50" style="fill:rgb(0%,0%,0%);fill-opacity:0.996078;stroke:none;"/>
  </g>
</mask>
<clipPath id="clip41">
  <rect x="0" y="0" width="50" height="50"/>
</clipPath>
<g id="surface125" clip-path="url(#clip41)">
<path style=" stroke:none;fill-rule:evenodd;fill:rgb(0%,90.588235%,100%);fill-opacity:1;" d="M 31.78125 32.691406 C 31.9375 32.679688 32.089844 32.707031 32.234375 32.769531 C 34.730469 33.957031 37.226562 35.144531 39.722656 36.332031 C 37 38.175781 34.277344 40.023438 31.558594 41.871094 C 31.398438 39.085938 31.242188 36.304688 31.09375 33.519531 C 31.109375 33.066406 31.335938 32.789062 31.78125 32.691406 Z M 31.78125 32.691406 "/>
</g>
<mask id="mask41">
  <g filter="url(#alpha)">
<rect x="0" y="0" width="50" height="50" style="fill:rgb(0%,0%,0%);fill-opacity:0.996078;stroke:none;"/>
  </g>
</mask>
<clipPath id="clip42">
  <rect x="0" y="0" width="50" height="50"/>
</clipPath>
<g id="surface128" clip-path="url(#clip42)">
<path style=" stroke:none;fill-rule:evenodd;fill:rgb(91.764706%,38.039216%,21.568627%);fill-opacity:1;" d="M 26.894531 32.800781 C 26.894531 34.921875 26.894531 37.046875 26.894531 39.171875 C 26.566406 39.234375 26.234375 39.292969 25.898438 39.339844 C 25.898438 37.246094 25.898438 35.15625 25.898438 33.0625 C 26.238281 32.992188 26.570312 32.902344 26.894531 32.800781 Z M 26.894531 32.800781 "/>
</g>
<mask id="mask42">
  <g filter="url(#alpha)">
<rect x="0" y="0" width="50" height="50" style="fill:rgb(0%,0%,0%);fill-opacity:0.996078;stroke:none;"/>
  </g>
</mask>
<clipPath id="clip43">
  <rect x="0" y="0" width="50" height="50"/>
</clipPath>
<g id="surface131" clip-path="url(#clip43)">
<path style=" stroke:none;fill-rule:evenodd;fill:rgb(91.764706%,36.862745%,22.352941%);fill-opacity:1;" d="M 25.898438 33.0625 C 25.898438 35.15625 25.898438 37.246094 25.898438 39.339844 C 25.730469 39.359375 25.5625 39.375 25.394531 39.386719 C 25.394531 37.3125 25.394531 35.234375 25.394531 33.160156 C 25.5625 33.128906 25.730469 33.097656 25.898438 33.0625 Z M 25.898438 33.0625 "/>
</g>
<mask id="mask43">
  <g filter="url(#alpha)">
<rect x="0" y="0" width="50" height="50" style="fill:rgb(0%,0%,0%);fill-opacity:0.996078;stroke:none;"/>
  </g>
</mask>
<clipPath id="clip44">
  <rect x="0" y="0" width="50" height="50"/>
</clipPath>
<g id="surface134" clip-path="url(#clip44)">
<path style=" stroke:none;fill-rule:evenodd;fill:rgb(90.588235%,32.156863%,24.705882%);fill-opacity:1;" d="M 22.15625 33.125 C 22.363281 33.164062 22.570312 33.195312 22.78125 33.21875 C 22.78125 35.292969 22.78125 37.363281 22.78125 39.433594 C 22.570312 39.421875 22.363281 39.402344 22.15625 39.375 C 22.15625 37.289062 22.15625 35.207031 22.15625 33.125 Z M 22.15625 33.125 "/>
</g>
<mask id="mask44">
  <g filter="url(#alpha)">
<rect x="0" y="0" width="50" height="50" style="fill:rgb(0%,0%,0%);fill-opacity:0.996078;stroke:none;"/>
  </g>
</mask>
<clipPath id="clip45">
  <rect x="0" y="0" width="50" height="50"/>
</clipPath>
<g id="surface137" clip-path="url(#clip45)">
<path style=" stroke:none;fill-rule:evenodd;fill:rgb(91.372549%,35.294118%,23.137255%);fill-opacity:1;" d="M 25.394531 33.160156 C 25.394531 35.234375 25.394531 37.3125 25.394531 39.386719 C 24.859375 39.445312 24.320312 39.472656 23.777344 39.472656 C 23.777344 37.40625 23.777344 35.34375 23.777344 33.28125 C 24.320312 33.277344 24.859375 33.238281 25.394531 33.160156 Z M 25.394531 33.160156 "/>
</g>
<mask id="mask45">
  <g filter="url(#alpha)">
<rect x="0" y="0" width="50" height="50" style="fill:rgb(0%,0%,0%);fill-opacity:0.996078;stroke:none;"/>
  </g>
</mask>
<clipPath id="clip46">
  <rect x="0" y="0" width="50" height="50"/>
</clipPath>
<g id="surface140" clip-path="url(#clip46)">
<path style=" stroke:none;fill-rule:evenodd;fill:rgb(90.980392%,33.333333%,23.921569%);fill-opacity:1;" d="M 22.898438 33.230469 C 23.191406 33.257812 23.484375 33.273438 23.777344 33.28125 C 23.777344 35.34375 23.777344 37.40625 23.777344 39.472656 C 23.484375 39.464844 23.191406 39.457031 22.898438 39.445312 C 22.898438 37.375 22.898438 35.304688 22.898438 33.230469 Z M 22.898438 33.230469 "/>
</g>
</defs>
<g id="surface1">
<use xlink:href="#surface5" mask="url(#mask0)"/>
<use xlink:href="#surface8" mask="url(#mask1)"/>
<use xlink:href="#surface11" mask="url(#mask2)"/>
<path style=" stroke:none;fill-rule:evenodd;fill:rgb(90.588235%,32.941176%,24.313725%);fill-opacity:1;" d="M 22.78125 7.769531 C 22.820312 7.769531 22.859375 7.769531 22.898438 7.769531 C 22.898438 9.835938 22.898438 11.90625 22.898438 13.972656 C 22.863281 13.984375 22.820312 13.988281 22.78125 13.984375 C 22.78125 11.914062 22.78125 9.839844 22.78125 7.769531 Z M 22.78125 7.769531 "/>
<use xlink:href="#surface14" mask="url(#mask3)"/>
<use xlink:href="#surface17" mask="url(#mask4)"/>
<use xlink:href="#surface20" mask="url(#mask5)"/>
<use xlink:href="#surface23" mask="url(#mask6)"/>
<use xlink:href="#surface26" mask="url(#mask7)"/>
<use xlink:href="#surface29" mask="url(#mask8)"/>
<use xlink:href="#surface32" mask="url(#mask9)"/>
<use xlink:href="#surface35" mask="url(#mask10)"/>
<use xlink:href="#surface38" mask="url(#mask11)"/>
<use xlink:href="#surface41" mask="url(#mask12)"/>
<use xlink:href="#surface44" mask="url(#mask13)"/>
<use xlink:href="#surface47" mask="url(#mask14)"/>
<use xlink:href="#surface50" mask="url(#mask15)"/>
<use xlink:href="#surface53" mask="url(#mask16)"/>
<use xlink:href="#surface56" mask="url(#mask17)"/>
<path style=" stroke:none;fill-rule:evenodd;fill:rgb(94.901961%,49.803922%,15.294118%);fill-opacity:1;" d="M 33.640625 11.070312 C 34.257812 11.542969 34.839844 12.070312 35.378906 12.640625 C 35.378906 19.617188 35.378906 26.59375 35.378906 33.566406 C 34.796875 33.3125 34.21875 33.050781 33.640625 32.789062 C 33.640625 25.546875 33.640625 18.308594 33.640625 11.070312 Z M 33.640625 11.070312 "/>
<use xlink:href="#surface59" mask="url(#mask18)"/>
<path style=" stroke:none;fill-rule:evenodd;fill:rgb(94.901961%,51.764706%,14.509804%);fill-opacity:1;" d="M 35.378906 12.640625 C 35.433594 12.683594 35.476562 12.730469 35.511719 12.785156 C 35.511719 19.730469 35.511719 26.679688 35.511719 33.628906 C 35.464844 33.613281 35.417969 33.59375 35.378906 33.566406 C 35.378906 26.59375 35.378906 19.617188 35.378906 12.640625 Z M 35.378906 12.640625 "/>
<path style=" stroke:none;fill-rule:evenodd;fill:rgb(95.294118%,51.764706%,14.509804%);fill-opacity:1;" d="M 35.511719 12.785156 C 35.683594 12.957031 35.847656 13.136719 36.003906 13.324219 C 36.003906 20.167969 36.003906 27.011719 36.003906 33.855469 C 35.835938 33.78125 35.671875 33.707031 35.511719 33.628906 C 35.511719 26.679688 35.511719 19.730469 35.511719 12.785156 Z M 35.511719 12.785156 "/>
<path style=" stroke:none;fill-rule:evenodd;fill:rgb(95.686275%,52.941176%,13.72549%);fill-opacity:1;" d="M 36.003906 13.324219 C 36.363281 13.746094 36.699219 14.1875 37.011719 14.644531 C 37.011719 20.621094 37.011719 26.597656 37.011719 32.570312 C 36.703125 33.019531 36.367188 33.449219 36.003906 33.855469 C 36.003906 27.011719 36.003906 20.167969 36.003906 13.324219 Z M 36.003906 13.324219 "/>
<use xlink:href="#surface62" mask="url(#mask19)"/>
<use xlink:href="#surface65" mask="url(#mask20)"/>
<use xlink:href="#surface68" mask="url(#mask21)"/>
<use xlink:href="#surface71" mask="url(#mask22)"/>
<use xlink:href="#surface74" mask="url(#mask23)"/>
<use xlink:href="#surface77" mask="url(#mask24)"/>
<path style=" stroke:none;fill-rule:evenodd;fill:rgb(86.666667%,15.686275%,33.333333%);fill-opacity:1;" d="M 10.542969 18.964844 C 10.972656 19.484375 11.472656 19.917969 12.042969 20.273438 C 12.042969 24.921875 12.042969 29.566406 12.042969 34.214844 C 11.480469 33.617188 10.980469 32.972656 10.542969 32.285156 C 10.542969 27.84375 10.542969 23.402344 10.542969 18.964844 Z M 10.542969 18.964844 "/>
<use xlink:href="#surface80" mask="url(#mask25)"/>
<path style=" stroke:none;fill-rule:evenodd;fill:rgb(87.058824%,17.647059%,32.156863%);fill-opacity:1;" d="M 12.042969 20.273438 C 12.433594 20.503906 12.851562 20.683594 13.289062 20.8125 C 13.289062 25.695312 13.289062 30.578125 13.289062 35.464844 C 12.84375 35.074219 12.429688 34.660156 12.042969 34.214844 C 12.042969 29.566406 12.042969 24.921875 12.042969 20.273438 Z M 12.042969 20.273438 "/>
<path style=" stroke:none;fill-rule:evenodd;fill:rgb(87.45098%,18.823529%,31.764706%);fill-opacity:1;" d="M 13.289062 20.8125 C 13.414062 20.851562 13.539062 20.886719 13.660156 20.921875 C 13.660156 25.871094 13.660156 30.824219 13.660156 35.773438 C 13.53125 35.679688 13.40625 35.574219 13.289062 35.464844 C 13.289062 30.578125 13.289062 25.695312 13.289062 20.8125 Z M 13.289062 20.8125 "/>
<use xlink:href="#surface83" mask="url(#mask26)"/>
<use xlink:href="#surface86" mask="url(#mask27)"/>
<use xlink:href="#surface89" mask="url(#mask28)"/>
<use xlink:href="#surface92" mask="url(#mask29)"/>
<use xlink:href="#surface95" mask="url(#mask30)"/>
<use xlink:href="#surface98" mask="url(#mask31)"/>
<use xlink:href="#surface101" mask="url(#mask32)"/>
<use xlink:href="#surface104" mask="url(#mask33)"/>
<use xlink:href="#surface107" mask="url(#mask34)"/>
<use xlink:href="#surface110" mask="url(#mask35)"/>
<use xlink:href="#surface113" mask="url(#mask36)"/>
<use xlink:href="#surface116" mask="url(#mask37)"/>
<use xlink:href="#surface119" mask="url(#mask38)"/>
<use xlink:href="#surface122" mask="url(#mask39)"/>
<use xlink:href="#surface125" mask="url(#mask40)"/>
<use xlink:href="#surface128" mask="url(#mask41)"/>
<use xlink:href="#surface131" mask="url(#mask42)"/>
<use xlink:href="#surface134" mask="url(#mask43)"/>
<use xlink:href="#surface137" mask="url(#mask44)"/>
<path style=" stroke:none;fill-rule:evenodd;fill:rgb(90.588235%,32.941176%,24.313725%);fill-opacity:1;" d="M 22.78125 33.21875 C 22.820312 33.222656 22.859375 33.226562 22.898438 33.230469 C 22.898438 35.304688 22.898438 37.375 22.898438 39.445312 C 22.863281 39.4375 22.820312 39.433594 22.78125 39.433594 C 22.78125 37.363281 22.78125 35.292969 22.78125 33.21875 Z M 22.78125 33.21875 "/>
<use xlink:href="#surface140" mask="url(#mask45)"/>
</g>
</svg>
